<?xml version="1.0"?>
<svg xmlns="http://www.w3.org/2000/svg" xmlns:xlink="http://www.w3.org/1999/xlink" version="1.1" id="Capa_1" x="0px" y="0px" viewBox="0 0 512 512" style="enable-background:new 0 0 512 512;" xml:space="preserve" width="512px" height="512px" class=""><g><g>
	<g>
		<path d="M504,104H8c-4.418,0-8,3.582-8,8v288c0,4.418,3.582,8,8,8h496c4.418,0,8-3.582,8-8V112C512,107.582,508.418,104,504,104z     M496,392H16V120h480V392z" data-original="#000000" class="active-path" data-old_color="#000000" fill="#646464"/>
	</g>
</g><g>
	<g>
		<path d="M408,328H104c-4.418,0-8,3.582-8,8v32c0,4.418,3.582,8,8,8h304c4.418,0,8-3.582,8-8v-32C416,331.582,412.418,328,408,328z     M400,360H112v-16h288V360z" data-original="#000000" class="active-path" data-old_color="#000000" fill="#646464"/>
	</g>
</g><g>
	<g>
		<path d="M80,200H48c-4.418,0-8,3.582-8,8v32c0,4.418,3.582,8,8,8h32c4.418,0,8-3.582,8-8v-32C88,203.582,84.418,200,80,200z     M72,232H56v-16h16V232z" data-original="#000000" class="active-path" data-old_color="#000000" fill="#646464"/>
	</g>
</g><g>
	<g>
		<path d="M144,200h-32c-4.418,0-8,3.582-8,8v32c0,4.418,3.582,8,8,8h32c4.418,0,8-3.582,8-8v-32C152,203.582,148.418,200,144,200z     M136,232h-16v-16h16V232z" data-original="#000000" class="active-path" data-old_color="#000000" fill="#646464"/>
	</g>
</g><g>
	<g>
		<path d="M208,200h-32c-4.418,0-8,3.582-8,8v32c0,4.418,3.582,8,8,8h32c4.418,0,8-3.582,8-8v-32C216,203.582,212.418,200,208,200z     M200,232h-16v-16h16V232z" data-original="#000000" class="active-path" data-old_color="#000000" fill="#646464"/>
	</g>
</g><g>
	<g>
		<path d="M272,200h-32c-4.418,0-8,3.582-8,8v32c0,4.418,3.582,8,8,8h32c4.418,0,8-3.582,8-8v-32C280,203.582,276.418,200,272,200z     M264,232h-16v-16h16V232z" data-original="#000000" class="active-path" data-old_color="#000000" fill="#646464"/>
	</g>
</g><g>
	<g>
		<path d="M336,200h-32c-4.418,0-8,3.582-8,8v32c0,4.418,3.582,8,8,8h32c4.418,0,8-3.582,8-8v-32C344,203.582,340.418,200,336,200z     M328,232h-16v-16h16V232z" data-original="#000000" class="active-path" data-old_color="#000000" fill="#646464"/>
	</g>
</g><g>
	<g>
		<path d="M400,200h-32c-4.418,0-8,3.582-8,8v32c0,4.418,3.582,8,8,8h32c4.418,0,8-3.582,8-8v-32C408,203.582,404.418,200,400,200z     M392,232h-16v-16h16V232z" data-original="#000000" class="active-path" data-old_color="#000000" fill="#646464"/>
	</g>
</g><g>
	<g>
		<path d="M464,200h-32c-4.418,0-8,3.582-8,8v32c0,4.418,3.582,8,8,8h32c4.418,0,8-3.582,8-8v-32C472,203.582,468.418,200,464,200z     M456,232h-16v-16h16V232z" data-original="#000000" class="active-path" data-old_color="#000000" fill="#646464"/>
	</g>
</g><g>
	<g>
		<path d="M80,136H48c-4.418,0-8,3.582-8,8v32c0,4.418,3.582,8,8,8h32c4.418,0,8-3.582,8-8v-32C88,139.582,84.418,136,80,136z     M72,168H56v-16h16V168z" data-original="#000000" class="active-path" data-old_color="#000000" fill="#646464"/>
	</g>
</g><g>
	<g>
		<path d="M144,136h-32c-4.418,0-8,3.582-8,8v32c0,4.418,3.582,8,8,8h32c4.418,0,8-3.582,8-8v-32C152,139.582,148.418,136,144,136z     M136,168h-16v-16h16V168z" data-original="#000000" class="active-path" data-old_color="#000000" fill="#646464"/>
	</g>
</g><g>
	<g>
		<path d="M208,136h-32c-4.418,0-8,3.582-8,8v32c0,4.418,3.582,8,8,8h32c4.418,0,8-3.582,8-8v-32C216,139.582,212.418,136,208,136z     M200,168h-16v-16h16V168z" data-original="#000000" class="active-path" data-old_color="#000000" fill="#646464"/>
	</g>
</g><g>
	<g>
		<path d="M272,136h-32c-4.418,0-8,3.582-8,8v32c0,4.418,3.582,8,8,8h32c4.418,0,8-3.582,8-8v-32C280,139.582,276.418,136,272,136z     M264,168h-16v-16h16V168z" data-original="#000000" class="active-path" data-old_color="#000000" fill="#646464"/>
	</g>
</g><g>
	<g>
		<path d="M336,136h-32c-4.418,0-8,3.582-8,8v32c0,4.418,3.582,8,8,8h32c4.418,0,8-3.582,8-8v-32C344,139.582,340.418,136,336,136z     M328,168h-16v-16h16V168z" data-original="#000000" class="active-path" data-old_color="#000000" fill="#646464"/>
	</g>
</g><g>
	<g>
		<path d="M400,136h-32c-4.418,0-8,3.582-8,8v32c0,4.418,3.582,8,8,8h32c4.418,0,8-3.582,8-8v-32C408,139.582,404.418,136,400,136z     M392,168h-16v-16h16V168z" data-original="#000000" class="active-path" data-old_color="#000000" fill="#646464"/>
	</g>
</g><g>
	<g>
		<path d="M464,136h-32c-4.418,0-8,3.582-8,8v32c0,4.418,3.582,8,8,8h32c4.418,0,8-3.582,8-8v-32C472,139.582,468.418,136,464,136z     M456,168h-16v-16h16V168z" data-original="#000000" class="active-path" data-old_color="#000000" fill="#646464"/>
	</g>
</g><g>
	<g>
		<path d="M80,264H48c-4.418,0-8,3.582-8,8v32c0,4.418,3.582,8,8,8h32c4.418,0,8-3.582,8-8v-32C88,267.582,84.418,264,80,264z     M72,296H56v-16h16V296z" data-original="#000000" class="active-path" data-old_color="#000000" fill="#646464"/>
	</g>
</g><g>
	<g>
		<path d="M144,264h-32c-4.418,0-8,3.582-8,8v32c0,4.418,3.582,8,8,8h32c4.418,0,8-3.582,8-8v-32C152,267.582,148.418,264,144,264z     M136,296h-16v-16h16V296z" data-original="#000000" class="active-path" data-old_color="#000000" fill="#646464"/>
	</g>
</g><g>
	<g>
		<path d="M208,264h-32c-4.418,0-8,3.582-8,8v32c0,4.418,3.582,8,8,8h32c4.418,0,8-3.582,8-8v-32C216,267.582,212.418,264,208,264z     M200,296h-16v-16h16V296z" data-original="#000000" class="active-path" data-old_color="#000000" fill="#646464"/>
	</g>
</g><g>
	<g>
		<path d="M272,264h-32c-4.418,0-8,3.582-8,8v32c0,4.418,3.582,8,8,8h32c4.418,0,8-3.582,8-8v-32C280,267.582,276.418,264,272,264z     M264,296h-16v-16h16V296z" data-original="#000000" class="active-path" data-old_color="#000000" fill="#646464"/>
	</g>
</g><g>
	<g>
		<path d="M336,264h-32c-4.418,0-8,3.582-8,8v32c0,4.418,3.582,8,8,8h32c4.418,0,8-3.582,8-8v-32C344,267.582,340.418,264,336,264z     M328,296h-16v-16h16V296z" data-original="#000000" class="active-path" data-old_color="#000000" fill="#646464"/>
	</g>
</g><g>
	<g>
		<path d="M400,264h-32c-4.418,0-8,3.582-8,8v32c0,4.418,3.582,8,8,8h32c4.418,0,8-3.582,8-8v-32C408,267.582,404.418,264,400,264z     M392,296h-16v-16h16V296z" data-original="#000000" class="active-path" data-old_color="#000000" fill="#646464"/>
	</g>
</g><g>
	<g>
		<path d="M464,264h-32c-4.418,0-8,3.582-8,8v32c0,4.418,3.582,8,8,8h32c4.418,0,8-3.582,8-8v-32C472,267.582,468.418,264,464,264z     M456,296h-16v-16h16V296z" data-original="#000000" class="active-path" data-old_color="#000000" fill="#646464"/>
	</g>
</g></g> </svg>
