<?xml version="1.0"?>
<svg xmlns="http://www.w3.org/2000/svg" xmlns:xlink="http://www.w3.org/1999/xlink" version="1.1" id="Capa_1" x="0px" y="0px" viewBox="0 0 200 200" style="enable-background:new 0 0 200 200;" xml:space="preserve" width="512px" height="512px" class=""><g><path d="M140.134,0H55.104H24.944c-3.286,0-5.952,2.665-5.952,5.953v188.094c0,3.288,2.666,5.953,5.952,5.953h30.161h85.029h34.921  c3.286,0,5.953-2.665,5.953-5.953V5.953c0-3.288-2.667-5.953-5.953-5.953H140.134z M49.151,185H33.992V15h15.159V185z M136.813,15  h11.453v21.042l-5.727-4.872l-5.727,4.872V15z M166.008,185h-34.921H64.151V15h62.661v42.679l15.727-13.38l15.727,13.38V15h7.742  V185z M71.329,26.5h39.783v15H71.329V26.5z M71.329,52.5h39.783v15H71.329V52.5z" data-original="#000000" class="active-path" data-old_color="#000000" fill="#676767"/></g> </svg>
